<svg width="14" height="14" viewBox="0 0 14 14" fill="none" xmlns="http://www.w3.org/2000/svg">
<path fill-rule="evenodd" clip-rule="evenodd" d="M5.30664 0.375C5.0305 0.375 4.80664 0.598858 4.80664 0.875C4.80664 1.15114 5.0305 1.375 5.30664 1.375H8.69484C8.97099 1.375 9.19484 1.15114 9.19484 0.875C9.19484 0.598858 8.97099 0.375 8.69484 0.375H5.30664ZM1.75391 3.48291C1.75391 3.0687 2.08969 2.73291 2.50391 2.73291H11.4957C11.9099 2.73291 12.2457 3.0687 12.2457 3.48291C12.2457 3.89712 11.9099 4.23291 11.4957 4.23291H11.1351C11.1552 4.31193 11.1659 4.39471 11.1659 4.47998V12.1233C11.1659 12.6756 10.7182 13.1233 10.1659 13.1233H3.82568C3.2734 13.1233 2.82568 12.6756 2.82568 12.1233V4.47998C2.82568 4.39471 2.83636 4.31193 2.85644 4.23291H2.50391C2.08969 4.23291 1.75391 3.89712 1.75391 3.48291ZM7.58789 6.604C7.58789 6.32786 7.36403 6.104 7.08789 6.104C6.81175 6.104 6.58789 6.32786 6.58789 6.604V9.99221C6.58789 10.2684 6.81175 10.4922 7.08789 10.4922C7.36403 10.4922 7.58789 10.2684 7.58789 9.99221V6.604ZM9.13184 6.08691C9.40798 6.08691 9.63184 6.31077 9.63184 6.58691V9.97512C9.63184 10.2513 9.40798 10.4751 9.13184 10.4751C8.85569 10.4751 8.63184 10.2513 8.63184 9.97512V6.58691C8.63184 6.31077 8.85569 6.08691 9.13184 6.08691ZM5.36621 6.604C5.36621 6.32786 5.14235 6.104 4.86621 6.104C4.59007 6.104 4.36621 6.32786 4.36621 6.604V9.99221C4.36621 10.2684 4.59007 10.4922 4.86621 10.4922C5.14235 10.4922 5.36621 10.2684 5.36621 9.99221L5.36621 6.604Z" fill="#EE3425"/>
</svg>
