<svg width="80" height="80" viewBox="0 0 80 80" fill="none" xmlns="http://www.w3.org/2000/svg">
<circle cx="40" cy="40" r="36.9231" stroke="#EE3425" stroke-width="6.15385"/>
<circle cx="39.8462" cy="39.6157" r="28.8462" fill="#EE3425"/>
<path d="M28.2115 36.352V39.616H32.0515V41.104H28.2115V44.512H32.5315V46H26.3875V34.864H32.5315V36.352H28.2115ZM39.2261 37.04C39.9195 37.04 40.5381 37.184 41.0821 37.472C41.6368 37.76 42.0688 38.1867 42.3781 38.752C42.6875 39.3173 42.8421 40 42.8421 40.8V46H41.0341V41.072C41.0341 40.2827 40.8368 39.68 40.4421 39.264C40.0475 38.8373 39.5088 38.624 38.8261 38.624C38.1435 38.624 37.5995 38.8373 37.1941 39.264C36.7995 39.68 36.6021 40.2827 36.6021 41.072V46H34.7781V37.184H36.6021V38.192C36.9008 37.8293 37.2795 37.5467 37.7381 37.344C38.2075 37.1413 38.7035 37.04 39.2261 37.04ZM44.5608 41.552C44.5608 40.6667 44.7421 39.8827 45.1048 39.2C45.4781 38.5173 45.9794 37.9893 46.6088 37.616C47.2488 37.232 47.9581 37.04 48.7368 37.04C49.3128 37.04 49.8781 37.168 50.4328 37.424C50.9981 37.6693 51.4461 38 51.7768 38.416V34.16H53.6168V46H51.7768V44.672C51.4781 45.0987 51.0621 45.4507 50.5288 45.728C50.0061 46.0053 49.4034 46.144 48.7208 46.144C47.9528 46.144 47.2488 45.952 46.6088 45.568C45.9794 45.1733 45.4781 44.6293 45.1048 43.936C44.7421 43.232 44.5608 42.4373 44.5608 41.552ZM51.7768 41.584C51.7768 40.976 51.6488 40.448 51.3928 40C51.1474 39.552 50.8221 39.2107 50.4168 38.976C50.0114 38.7413 49.5741 38.624 49.1048 38.624C48.6354 38.624 48.1981 38.7413 47.7928 38.976C47.3874 39.2 47.0568 39.536 46.8008 39.984C46.5554 40.4213 46.4328 40.944 46.4328 41.552C46.4328 42.16 46.5554 42.6933 46.8008 43.152C47.0568 43.6107 47.3874 43.9627 47.7928 44.208C48.2088 44.4427 48.6461 44.56 49.1048 44.56C49.5741 44.56 50.0114 44.4427 50.4168 44.208C50.8221 43.9733 51.1474 43.632 51.3928 43.184C51.6488 42.7253 51.7768 42.192 51.7768 41.584Z" fill="white"/>
</svg>
