<svg width="18" height="18" viewBox="0 0 18 18" fill="none" xmlns="http://www.w3.org/2000/svg">
<mask id="mask0_7_7352" style="mask-type:luminance" maskUnits="userSpaceOnUse" x="0" y="0" width="18" height="18">
<rect width="18" height="18" fill="white"/>
</mask>
<g mask="url(#mask0_7_7352)">
<path fill-rule="evenodd" clip-rule="evenodd" d="M9 1.875C5.06498 1.875 1.87501 5.06496 1.875 8.99998C1.87499 12.935 5.06494 16.125 8.99997 16.125C12.935 16.125 16.125 12.9351 16.125 9.00003C16.125 5.06501 12.9351 1.87503 9.00003 1.875H9Z" fill="#039BE5"/>
<path fill-rule="evenodd" clip-rule="evenodd" d="M9.965 10.8889H11.8089L12.0984 9.01578H9.96462V7.99203C9.96462 7.21391 10.2189 6.52391 10.9467 6.52391H12.1164V4.88928C11.9109 4.86153 11.4762 4.80078 10.655 4.80078C8.94012 4.80078 7.93475 5.70641 7.93475 7.76966V9.01578H6.17188V10.8889H7.93475V16.0373C8.28387 16.0898 8.6375 16.1254 9.0005 16.1254C9.32862 16.1254 9.64887 16.0954 9.965 16.0527V10.8889Z" fill="white"/>
</g>
</svg>
