<svg width="18" height="18" viewBox="0 0 18 18" fill="none" xmlns="http://www.w3.org/2000/svg">
<mask id="mask0_7_7344" style="mask-type:luminance" maskUnits="userSpaceOnUse" x="0" y="0" width="18" height="18">
<rect width="18" height="18" fill="white"/>
</mask>
<g mask="url(#mask0_7_7344)">
<path fill-rule="evenodd" clip-rule="evenodd" d="M16.3541 7.53113H15.75V7.5H9V10.5H13.2386C12.6203 12.2464 10.9586 13.5 9 13.5C6.51488 13.5 4.5 11.4851 4.5 9C4.5 6.51488 6.51488 4.5 9 4.5C10.1471 4.5 11.1908 4.93275 11.9854 5.63963L14.1067 3.51825C12.7673 2.26987 10.9755 1.5 9 1.5C4.85813 1.5 1.5 4.85813 1.5 9C1.5 13.1419 4.85813 16.5 9 16.5C13.1419 16.5 16.5 13.1419 16.5 9C16.5 8.49713 16.4482 8.00625 16.3541 7.53113Z" fill="#FFC107"/>
<path fill-rule="evenodd" clip-rule="evenodd" d="M2.36328 5.50912L4.82741 7.31625C5.49416 5.6655 7.10891 4.5 8.99853 4.5C10.1457 4.5 11.1893 4.93275 11.9839 5.63962L14.1053 3.51825C12.7658 2.26987 10.974 1.5 8.99853 1.5C6.11778 1.5 3.61953 3.12637 2.36328 5.50912Z" fill="#FF3D00"/>
<path fill-rule="evenodd" clip-rule="evenodd" d="M9.00109 16.4993C10.9383 16.4993 12.6986 15.7579 14.0295 14.5523L11.7082 12.588C10.9552 13.1584 10.0192 13.4993 9.00109 13.4993C7.05034 13.4993 5.39397 12.2554 4.76997 10.5195L2.32422 12.4039C3.56547 14.8328 6.08622 16.4993 9.00109 16.4993Z" fill="#4CAF50"/>
<path fill-rule="evenodd" clip-rule="evenodd" d="M16.3541 7.53113H15.75V7.5H9V10.5H13.2386C12.9416 11.3389 12.402 12.0623 11.706 12.5891C11.7064 12.5888 11.7068 12.5887 11.7071 12.5884L14.0284 14.5526C13.8641 14.7019 16.5 12.75 16.5 9C16.5 8.49713 16.4482 8.00625 16.3541 7.53113Z" fill="#1976D2"/>
</g>
</svg>
