<svg width="64" height="64" viewBox="0 0 64 64" fill="none" xmlns="http://www.w3.org/2000/svg">
<path fill-rule="evenodd" clip-rule="evenodd" d="M32.0011 4.94378e-06C16.7325 -0.0084276 3.58497 10.7715 0.600784 25.7455C-2.3834 40.7196 5.62714 55.7162 19.7324 61.5618V31.3905L24.2713 25.5482V63.0543C26.7999 63.6827 29.3956 64.0003 32.0011 64C32.7884 64.0001 33.5655 63.9626 34.3376 63.9056V19.706L38.8765 25.5482V63.2563C41.5627 62.6674 44.1611 61.732 46.6063 60.4738V12.1183L51.1452 17.9606V57.6507C62.1942 49.4033 66.7183 35.006 62.3727 21.9211C58.027 8.83619 45.7888 0.00583332 32.0011 0.00694939L32.0011 4.94378e-06Z" fill="url(#paint0_linear_7_7381)"/>
<defs>
<linearGradient id="paint0_linear_7_7381" x1="-24.9574" y1="-14.08" x2="-23.5499" y2="98.624" gradientUnits="userSpaceOnUse">
<stop stop-color="white"/>
<stop offset="0.6" stop-color="white" stop-opacity="0.968627"/>
<stop offset="1" stop-color="white" stop-opacity="0.101961"/>
</linearGradient>
</defs>
</svg>
