<svg width="14" height="16" viewBox="0 0 14 16" fill="none" xmlns="http://www.w3.org/2000/svg">
<path d="M12.2854 3.89243L7.50885 1.24124C6.83243 0.870912 6.81032 1.90532 6.94438 2.66474C6.98416 2.89013 6.93844 3.12225 6.81615 3.31571L5.70328 5.07623C4.98749 6.20858 3.92948 7.08337 2.6828 7.57362L0.709973 8.34942L9.51929 13.5561L9.29718 11.4761C9.14362 10.0381 9.43238 8.58741 10.1249 7.31777L11.0082 5.69839C11.1072 5.51682 11.258 5.3688 11.4414 5.27312C12.1804 4.88752 13.0165 4.29272 12.2854 3.89243Z" fill="white"/>
<path d="M6.35463 0.125087C6.42369 0.00547063 6.57664 -0.0355131 6.69626 0.0335476L13.8436 4.16005C13.9632 4.22911 14.0042 4.38206 13.9351 4.50168L13.8863 4.58614C13.6325 5.02581 13.3068 5.37489 12.9086 5.63446C12.5431 5.8727 12.1335 6.02712 11.6807 6.10038C11.6036 6.11285 11.535 6.15782 11.496 6.22546L9.84904 9.07804C9.80066 9.16183 9.80548 9.26567 9.85775 9.34708C10.0568 9.65717 10.2122 9.98361 10.3251 10.3242C10.4535 10.7146 10.5288 11.1118 10.551 11.516C10.5739 11.919 10.5335 12.3216 10.4306 12.7199C10.3282 13.12 10.174 13.5045 9.96744 13.8748L9.77987 14.1997C9.71081 14.3193 9.55786 14.3603 9.43824 14.2912L5.53971 12.0404C5.4201 11.9713 5.26714 12.0123 5.19808 12.1319L3.33816 15.3534C3.31875 15.387 3.29178 15.4156 3.25938 15.437L2.55936 15.8992C2.38738 16.0128 2.15958 15.8813 2.17192 15.6755L2.22218 14.8382C2.22451 14.7995 2.23583 14.7618 2.25524 14.7282L4.11516 11.5067C4.18422 11.3871 4.14323 11.2341 4.02362 11.1651L0.125087 8.91424C0.00547034 8.84518 -0.035513 8.69222 0.0335477 8.57261L0.221115 8.24773C0.433067 7.88062 0.687164 7.55805 0.983572 7.27724C1.28044 6.99814 1.60891 6.76184 1.96882 6.57111C2.65326 6.20664 3.42333 6.03654 4.19566 6.07764C4.29303 6.08282 4.3864 6.03507 4.43515 5.95063L6.08115 3.09966C6.12032 3.03183 6.12485 2.94978 6.09722 2.87648C5.94214 2.46501 5.8733 2.02555 5.89554 1.58549C5.92393 1.10126 6.06439 0.630245 6.30586 0.209555L6.35463 0.125087ZM7.47056 1.60395C7.32251 1.51847 7.13179 1.60445 7.13336 1.77539C7.13366 1.8091 7.13526 1.842 7.13816 1.87409C7.16046 2.13891 7.239 2.39592 7.36855 2.62797L7.50885 2.89404C7.54894 2.97006 7.54719 3.06132 7.50422 3.13574L5.09744 7.30441C5.04423 7.39657 4.93852 7.44497 4.83399 7.42502L4.57156 7.37496C4.03519 7.2761 3.50908 7.31455 2.9932 7.49031C2.56889 7.63569 2.06215 8.0003 1.69305 8.3514C1.57794 8.4609 1.60726 8.64662 1.74485 8.72605L8.79256 12.795C8.92975 12.8743 9.10475 12.8074 9.14227 12.6535C9.2629 12.1587 9.32456 11.5364 9.23735 11.0954C9.13562 10.5688 8.89776 10.078 8.54744 9.67188L8.37275 9.46733C8.30396 9.38677 8.29338 9.27161 8.34634 9.17987L10.7516 5.01385C10.7953 4.93811 10.8754 4.89072 10.9629 4.88886L11.2562 4.88262C11.3936 4.87966 11.5242 4.86117 11.6489 4.82776C11.778 4.7931 11.9046 4.7494 12.0276 4.69699C12.0642 4.68126 12.0999 4.66377 12.1346 4.64459C12.2794 4.56466 12.2559 4.36679 12.1127 4.2841L7.47056 1.60395Z" fill="#221F20"/>
</svg>
