<svg width="80" height="80" viewBox="0 0 80 80" fill="none" xmlns="http://www.w3.org/2000/svg">
<circle cx="40" cy="40" r="36.9231" stroke="#849E4C" stroke-width="6.15385"/>
<circle cx="39.6157" cy="39.6157" r="28.8462" fill="#849E4C"/>
<path d="M26.0906 46.112C25.3439 46.112 24.6719 45.984 24.0746 45.728C23.4772 45.4613 23.0079 45.088 22.6666 44.608C22.3252 44.128 22.1546 43.568 22.1546 42.928H24.1066C24.1492 43.408 24.3359 43.8027 24.6666 44.112C25.0079 44.4213 25.4826 44.576 26.0906 44.576C26.7199 44.576 27.2106 44.4267 27.5626 44.128C27.9146 43.8187 28.0906 43.424 28.0906 42.944C28.0906 42.5707 27.9786 42.2667 27.7546 42.032C27.5412 41.7973 27.2692 41.616 26.9386 41.488C26.6186 41.36 26.1706 41.2213 25.5946 41.072C24.8692 40.88 24.2772 40.688 23.8186 40.496C23.3706 40.2933 22.9866 39.984 22.6666 39.568C22.3466 39.152 22.1866 38.5973 22.1866 37.904C22.1866 37.264 22.3466 36.704 22.6666 36.224C22.9866 35.744 23.4346 35.376 24.0106 35.12C24.5866 34.864 25.2532 34.736 26.0106 34.736C27.0879 34.736 27.9679 35.008 28.6506 35.552C29.3439 36.0853 29.7279 36.8213 29.8026 37.76H27.7866C27.7546 37.3547 27.5626 37.008 27.2106 36.72C26.8586 36.432 26.3946 36.288 25.8186 36.288C25.2959 36.288 24.8692 36.4213 24.5386 36.688C24.2079 36.9547 24.0426 37.3387 24.0426 37.84C24.0426 38.1813 24.1439 38.464 24.3466 38.688C24.5599 38.9013 24.8266 39.072 25.1466 39.2C25.4666 39.328 25.9039 39.4667 26.4586 39.616C27.1946 39.8187 27.7919 40.0213 28.2506 40.224C28.7199 40.4267 29.1146 40.7413 29.4346 41.168C29.7652 41.584 29.9306 42.144 29.9306 42.848C29.9306 43.4133 29.7759 43.9467 29.4666 44.448C29.1679 44.9493 28.7252 45.3547 28.1386 45.664C27.5626 45.9627 26.8799 46.112 26.0906 46.112ZM34.2108 38.672V43.552C34.2108 43.8827 34.2855 44.1227 34.4348 44.272C34.5948 44.4107 34.8615 44.48 35.2348 44.48H36.3548V46H34.9148C34.0935 46 33.4641 45.808 33.0268 45.424C32.5895 45.04 32.3708 44.416 32.3708 43.552V38.672H31.3308V37.184H32.3708V34.992H34.2108V37.184H36.3548V38.672H34.2108ZM37.4279 41.552C37.4279 40.6667 37.6093 39.8827 37.9719 39.2C38.3453 38.5173 38.8466 37.9893 39.4759 37.616C40.1159 37.232 40.8199 37.04 41.5879 37.04C42.2813 37.04 42.8839 37.1787 43.3959 37.456C43.9186 37.7227 44.3346 38.0587 44.6439 38.464V37.184H46.4839V46H44.6439V44.688C44.3346 45.104 43.9133 45.4507 43.3799 45.728C42.8466 46.0053 42.2386 46.144 41.5559 46.144C40.7986 46.144 40.1053 45.952 39.4759 45.568C38.8466 45.1733 38.3453 44.6293 37.9719 43.936C37.6093 43.232 37.4279 42.4373 37.4279 41.552ZM44.6439 41.584C44.6439 40.976 44.5159 40.448 44.2599 40C44.0146 39.552 43.6893 39.2107 43.2839 38.976C42.8786 38.7413 42.4413 38.624 41.9719 38.624C41.5026 38.624 41.0653 38.7413 40.6599 38.976C40.2546 39.2 39.9239 39.536 39.6679 39.984C39.4226 40.4213 39.2999 40.944 39.2999 41.552C39.2999 42.16 39.4226 42.6933 39.6679 43.152C39.9239 43.6107 40.2546 43.9627 40.6599 44.208C41.0759 44.4427 41.5133 44.56 41.9719 44.56C42.4413 44.56 42.8786 44.4427 43.2839 44.208C43.6893 43.9733 44.0146 43.632 44.2599 43.184C44.5159 42.7253 44.6439 42.192 44.6439 41.584ZM50.7037 38.464C50.9704 38.016 51.3224 37.6693 51.7597 37.424C52.2077 37.168 52.7357 37.04 53.3437 37.04V38.928H52.8797C52.165 38.928 51.621 39.1093 51.2477 39.472C50.885 39.8347 50.7037 40.464 50.7037 41.36V46H48.8797V37.184H50.7037V38.464ZM57.1483 38.672V43.552C57.1483 43.8827 57.223 44.1227 57.3723 44.272C57.5323 44.4107 57.799 44.48 58.1723 44.48H59.2923V46H57.8523C57.031 46 56.4016 45.808 55.9643 45.424C55.527 45.04 55.3083 44.416 55.3083 43.552V38.672H54.2683V37.184H55.3083V34.992H57.1483V37.184H59.2923V38.672H57.1483Z" fill="white"/>
</svg>
